<mxfile host="app.diagrams.net" agent="Mozilla/5.0 (Windows NT 10.0; Win64; x64) AppleWebKit/537.36 (KHTML, like Gecko) Chrome/138.0.0.0 Safari/537.36" version="27.1.6">
  <diagram name="Страница — 1" id="nmdKu3GwTko34Qv3q5eC">
    <mxGraphModel dx="1358" dy="725" grid="0" gridSize="10" guides="1" tooltips="1" connect="1" arrows="1" fold="1" page="1" pageScale="1" pageWidth="827" pageHeight="1169" math="0" shadow="0">
      <root>
        <mxCell id="0" />
        <mxCell id="1" parent="0" />
        <mxCell id="BgyoTB2KhY9Enmg1zpAA-1" value="main" style="shape=process;whiteSpace=wrap;html=1;backgroundOutline=1;" vertex="1" parent="1">
          <mxGeometry x="1144" y="72" width="106" height="60" as="geometry" />
        </mxCell>
        <mxCell id="BgyoTB2KhY9Enmg1zpAA-2" value="app.run" style="shape=process;whiteSpace=wrap;html=1;backgroundOutline=1;" vertex="1" parent="1">
          <mxGeometry x="1140" y="163" width="114" height="60" as="geometry" />
        </mxCell>
        <mxCell id="BgyoTB2KhY9Enmg1zpAA-3" value="" style="endArrow=classic;html=1;rounded=0;exitX=0.5;exitY=1;exitDx=0;exitDy=0;entryX=0.5;entryY=0;entryDx=0;entryDy=0;" edge="1" parent="1" source="BgyoTB2KhY9Enmg1zpAA-1" target="BgyoTB2KhY9Enmg1zpAA-2">
          <mxGeometry width="50" height="50" relative="1" as="geometry">
            <mxPoint x="466" y="320" as="sourcePoint" />
            <mxPoint x="516" y="270" as="targetPoint" />
          </mxGeometry>
        </mxCell>
        <mxCell id="BgyoTB2KhY9Enmg1zpAA-4" value="&lt;div style=&quot;font-family: Consolas, &amp;quot;Courier New&amp;quot;, monospace; line-height: 22px; white-space: pre;&quot;&gt;&lt;font style=&quot;color: light-dark(rgb(255, 255, 255), rgb(255, 255, 255));&quot;&gt;load_file&lt;/font&gt;&lt;/div&gt;" style="shape=process;whiteSpace=wrap;html=1;backgroundOutline=1;" vertex="1" parent="1">
          <mxGeometry x="1434" y="163" width="87" height="60" as="geometry" />
        </mxCell>
        <mxCell id="BgyoTB2KhY9Enmg1zpAA-6" value="&lt;div style=&quot;font-family: Consolas, &amp;quot;Courier New&amp;quot;, monospace; line-height: 22px; white-space: pre;&quot;&gt;&lt;font style=&quot;color: light-dark(rgb(255, 255, 255), rgb(255, 255, 255));&quot;&gt;graph_1&lt;/font&gt;&lt;/div&gt;" style="shape=process;whiteSpace=wrap;html=1;backgroundOutline=1;" vertex="1" parent="1">
          <mxGeometry x="281" y="258.5" width="78" height="60" as="geometry" />
        </mxCell>
        <mxCell id="BgyoTB2KhY9Enmg1zpAA-7" value="&lt;div style=&quot;font-family: Consolas, &amp;quot;Courier New&amp;quot;, monospace; line-height: 22px; white-space: pre;&quot;&gt;&lt;font style=&quot;color: light-dark(rgb(255, 255, 255), rgb(255, 255, 255));&quot;&gt;graph_2&lt;/font&gt;&lt;/div&gt;" style="shape=process;whiteSpace=wrap;html=1;backgroundOutline=1;" vertex="1" parent="1">
          <mxGeometry x="367" y="294" width="77" height="60" as="geometry" />
        </mxCell>
        <mxCell id="BgyoTB2KhY9Enmg1zpAA-8" value="&lt;div style=&quot;font-family: Consolas, &amp;quot;Courier New&amp;quot;, monospace; line-height: 22px; white-space: pre;&quot;&gt;&lt;font style=&quot;color: light-dark(rgb(255, 255, 255), rgb(255, 255, 255));&quot;&gt;graph_3&lt;/font&gt;&lt;/div&gt;" style="shape=process;whiteSpace=wrap;html=1;backgroundOutline=1;" vertex="1" parent="1">
          <mxGeometry x="451" y="318.5" width="78" height="60" as="geometry" />
        </mxCell>
        <mxCell id="BgyoTB2KhY9Enmg1zpAA-9" value="&lt;div style=&quot;font-family: Consolas, &amp;quot;Courier New&amp;quot;, monospace; line-height: 22px; white-space: pre;&quot;&gt;&lt;font style=&quot;color: light-dark(rgb(255, 255, 255), rgb(255, 255, 255));&quot;&gt;graph_4&lt;/font&gt;&lt;/div&gt;" style="shape=process;whiteSpace=wrap;html=1;backgroundOutline=1;" vertex="1" parent="1">
          <mxGeometry x="535" y="344" width="75" height="60" as="geometry" />
        </mxCell>
        <mxCell id="BgyoTB2KhY9Enmg1zpAA-10" value="&lt;div style=&quot;font-family: Consolas, &amp;quot;Courier New&amp;quot;, monospace; line-height: 22px; white-space: pre;&quot;&gt;&lt;font style=&quot;color: light-dark(rgb(255, 255, 255), rgb(255, 255, 255));&quot;&gt;graph_5&lt;/font&gt;&lt;/div&gt;" style="shape=process;whiteSpace=wrap;html=1;backgroundOutline=1;" vertex="1" parent="1">
          <mxGeometry x="614" y="362" width="76" height="60" as="geometry" />
        </mxCell>
        <mxCell id="BgyoTB2KhY9Enmg1zpAA-11" value="&lt;div style=&quot;font-family: Consolas, &amp;quot;Courier New&amp;quot;, monospace; line-height: 22px; white-space: pre;&quot;&gt;&lt;font style=&quot;color: light-dark(rgb(255, 255, 255), rgb(255, 255, 255));&quot;&gt;graph_6&lt;/font&gt;&lt;/div&gt;" style="shape=process;whiteSpace=wrap;html=1;backgroundOutline=1;" vertex="1" parent="1">
          <mxGeometry x="696" y="387" width="79" height="60" as="geometry" />
        </mxCell>
        <mxCell id="BgyoTB2KhY9Enmg1zpAA-12" value="&lt;div style=&quot;font-family: Consolas, &amp;quot;Courier New&amp;quot;, monospace; line-height: 22px; white-space: pre;&quot;&gt;&lt;font style=&quot;color: light-dark(rgb(255, 255, 255), rgb(255, 255, 255));&quot;&gt;graph_7&lt;/font&gt;&lt;/div&gt;" style="shape=process;whiteSpace=wrap;html=1;backgroundOutline=1;" vertex="1" parent="1">
          <mxGeometry x="783" y="404" width="74" height="60" as="geometry" />
        </mxCell>
        <mxCell id="BgyoTB2KhY9Enmg1zpAA-13" value="&lt;div style=&quot;font-family: Consolas, &amp;quot;Courier New&amp;quot;, monospace; line-height: 22px; white-space: pre;&quot;&gt;&lt;font style=&quot;color: light-dark(rgb(255, 255, 255), rgb(255, 255, 255));&quot;&gt;graph_8&lt;/font&gt;&lt;/div&gt;" style="shape=process;whiteSpace=wrap;html=1;backgroundOutline=1;" vertex="1" parent="1">
          <mxGeometry x="862" y="429" width="74" height="60" as="geometry" />
        </mxCell>
        <mxCell id="BgyoTB2KhY9Enmg1zpAA-14" value="&lt;div style=&quot;font-family: Consolas, &amp;quot;Courier New&amp;quot;, monospace; line-height: 22px; white-space: pre;&quot;&gt;&lt;font style=&quot;color: light-dark(rgb(255, 255, 255), rgb(255, 255, 255));&quot;&gt;graph_9&lt;/font&gt;&lt;/div&gt;" style="shape=process;whiteSpace=wrap;html=1;backgroundOutline=1;" vertex="1" parent="1">
          <mxGeometry x="942" y="455" width="76" height="60" as="geometry" />
        </mxCell>
        <mxCell id="BgyoTB2KhY9Enmg1zpAA-16" value="&lt;div style=&quot;font-family: Consolas, &amp;quot;Courier New&amp;quot;, monospace; line-height: 22px; white-space: pre;&quot;&gt;&lt;font style=&quot;color: light-dark(rgb(255, 255, 255), rgb(255, 255, 255));&quot;&gt;graph_10&lt;/font&gt;&lt;/div&gt;" style="shape=process;whiteSpace=wrap;html=1;backgroundOutline=1;" vertex="1" parent="1">
          <mxGeometry x="1023" y="487" width="82" height="60" as="geometry" />
        </mxCell>
        <mxCell id="BgyoTB2KhY9Enmg1zpAA-17" value="" style="endArrow=classic;html=1;rounded=0;exitX=0.5;exitY=1;exitDx=0;exitDy=0;entryX=0.5;entryY=0;entryDx=0;entryDy=0;" edge="1" parent="1" source="BgyoTB2KhY9Enmg1zpAA-2" target="BgyoTB2KhY9Enmg1zpAA-6">
          <mxGeometry width="50" height="50" relative="1" as="geometry">
            <mxPoint x="334" y="437" as="sourcePoint" />
            <mxPoint x="384" y="387" as="targetPoint" />
          </mxGeometry>
        </mxCell>
        <mxCell id="BgyoTB2KhY9Enmg1zpAA-18" value="" style="endArrow=classic;html=1;rounded=0;exitX=0.5;exitY=1;exitDx=0;exitDy=0;entryX=0.5;entryY=0;entryDx=0;entryDy=0;" edge="1" parent="1" source="BgyoTB2KhY9Enmg1zpAA-2" target="BgyoTB2KhY9Enmg1zpAA-7">
          <mxGeometry width="50" height="50" relative="1" as="geometry">
            <mxPoint x="410" y="431" as="sourcePoint" />
            <mxPoint x="460" y="381" as="targetPoint" />
          </mxGeometry>
        </mxCell>
        <mxCell id="BgyoTB2KhY9Enmg1zpAA-19" value="" style="endArrow=classic;html=1;rounded=0;exitX=0.5;exitY=1;exitDx=0;exitDy=0;entryX=0.5;entryY=0;entryDx=0;entryDy=0;" edge="1" parent="1" source="BgyoTB2KhY9Enmg1zpAA-2" target="BgyoTB2KhY9Enmg1zpAA-8">
          <mxGeometry width="50" height="50" relative="1" as="geometry">
            <mxPoint x="387" y="454" as="sourcePoint" />
            <mxPoint x="437" y="404" as="targetPoint" />
          </mxGeometry>
        </mxCell>
        <mxCell id="BgyoTB2KhY9Enmg1zpAA-21" value="" style="endArrow=classic;html=1;rounded=0;exitX=0.5;exitY=1;exitDx=0;exitDy=0;entryX=0.5;entryY=0;entryDx=0;entryDy=0;" edge="1" parent="1" source="BgyoTB2KhY9Enmg1zpAA-2" target="BgyoTB2KhY9Enmg1zpAA-9">
          <mxGeometry width="50" height="50" relative="1" as="geometry">
            <mxPoint x="466" y="442" as="sourcePoint" />
            <mxPoint x="516" y="392" as="targetPoint" />
          </mxGeometry>
        </mxCell>
        <mxCell id="BgyoTB2KhY9Enmg1zpAA-22" value="" style="endArrow=classic;html=1;rounded=0;exitX=0.5;exitY=1;exitDx=0;exitDy=0;entryX=0.5;entryY=0;entryDx=0;entryDy=0;" edge="1" parent="1" source="BgyoTB2KhY9Enmg1zpAA-2" target="BgyoTB2KhY9Enmg1zpAA-10">
          <mxGeometry width="50" height="50" relative="1" as="geometry">
            <mxPoint x="570" y="446" as="sourcePoint" />
            <mxPoint x="620" y="396" as="targetPoint" />
          </mxGeometry>
        </mxCell>
        <mxCell id="BgyoTB2KhY9Enmg1zpAA-23" value="" style="endArrow=classic;html=1;rounded=0;exitX=0.5;exitY=1;exitDx=0;exitDy=0;entryX=0.5;entryY=0;entryDx=0;entryDy=0;" edge="1" parent="1" source="BgyoTB2KhY9Enmg1zpAA-2" target="BgyoTB2KhY9Enmg1zpAA-11">
          <mxGeometry width="50" height="50" relative="1" as="geometry">
            <mxPoint x="613" y="466" as="sourcePoint" />
            <mxPoint x="663" y="416" as="targetPoint" />
          </mxGeometry>
        </mxCell>
        <mxCell id="BgyoTB2KhY9Enmg1zpAA-24" value="" style="endArrow=classic;html=1;rounded=0;exitX=0.5;exitY=1;exitDx=0;exitDy=0;entryX=0.5;entryY=0;entryDx=0;entryDy=0;" edge="1" parent="1" source="BgyoTB2KhY9Enmg1zpAA-2" target="BgyoTB2KhY9Enmg1zpAA-12">
          <mxGeometry width="50" height="50" relative="1" as="geometry">
            <mxPoint x="543" y="465" as="sourcePoint" />
            <mxPoint x="593" y="415" as="targetPoint" />
          </mxGeometry>
        </mxCell>
        <mxCell id="BgyoTB2KhY9Enmg1zpAA-25" value="" style="endArrow=classic;html=1;rounded=0;exitX=0.5;exitY=1;exitDx=0;exitDy=0;entryX=0.5;entryY=0;entryDx=0;entryDy=0;" edge="1" parent="1" source="BgyoTB2KhY9Enmg1zpAA-2" target="BgyoTB2KhY9Enmg1zpAA-13">
          <mxGeometry width="50" height="50" relative="1" as="geometry">
            <mxPoint x="690" y="459" as="sourcePoint" />
            <mxPoint x="740" y="409" as="targetPoint" />
          </mxGeometry>
        </mxCell>
        <mxCell id="BgyoTB2KhY9Enmg1zpAA-26" value="" style="endArrow=classic;html=1;rounded=0;exitX=0.5;exitY=1;exitDx=0;exitDy=0;entryX=0.5;entryY=0;entryDx=0;entryDy=0;" edge="1" parent="1" source="BgyoTB2KhY9Enmg1zpAA-2" target="BgyoTB2KhY9Enmg1zpAA-14">
          <mxGeometry width="50" height="50" relative="1" as="geometry">
            <mxPoint x="699" y="494" as="sourcePoint" />
            <mxPoint x="749" y="444" as="targetPoint" />
          </mxGeometry>
        </mxCell>
        <mxCell id="BgyoTB2KhY9Enmg1zpAA-27" value="" style="endArrow=classic;html=1;rounded=0;exitX=0.5;exitY=1;exitDx=0;exitDy=0;entryX=0.5;entryY=0;entryDx=0;entryDy=0;" edge="1" parent="1" source="BgyoTB2KhY9Enmg1zpAA-2" target="BgyoTB2KhY9Enmg1zpAA-16">
          <mxGeometry width="50" height="50" relative="1" as="geometry">
            <mxPoint x="814" y="484" as="sourcePoint" />
            <mxPoint x="864" y="434" as="targetPoint" />
          </mxGeometry>
        </mxCell>
        <mxCell id="BgyoTB2KhY9Enmg1zpAA-28" value="&lt;div style=&quot;font-family: Consolas, &amp;quot;Courier New&amp;quot;, monospace; line-height: 22px; white-space: pre;&quot;&gt;&lt;font style=&quot;color: light-dark(rgb(255, 255, 255), rgb(255, 255, 255));&quot;&gt;index&lt;/font&gt;&lt;/div&gt;" style="shape=process;whiteSpace=wrap;html=1;backgroundOutline=1;" vertex="1" parent="1">
          <mxGeometry x="862" y="161" width="71" height="60" as="geometry" />
        </mxCell>
        <mxCell id="BgyoTB2KhY9Enmg1zpAA-29" value="" style="endArrow=classic;html=1;rounded=0;exitX=0;exitY=0.5;exitDx=0;exitDy=0;entryX=1;entryY=0.5;entryDx=0;entryDy=0;" edge="1" parent="1" source="BgyoTB2KhY9Enmg1zpAA-2" target="BgyoTB2KhY9Enmg1zpAA-28">
          <mxGeometry width="50" height="50" relative="1" as="geometry">
            <mxPoint x="45" y="528" as="sourcePoint" />
            <mxPoint x="95" y="478" as="targetPoint" />
          </mxGeometry>
        </mxCell>
        <mxCell id="BgyoTB2KhY9Enmg1zpAA-30" value="&lt;div style=&quot;font-family: Consolas, &amp;quot;Courier New&amp;quot;, monospace; line-height: 22px; white-space: pre;&quot;&gt;&lt;span&gt;&lt;font style=&quot;color: light-dark(rgb(255, 255, 255), rgb(255, 255, 255));&quot;&gt;analysisEnergyСonsumptionOfAllDevices&lt;/font&gt;&lt;/span&gt;&lt;/div&gt;" style="shape=process;whiteSpace=wrap;html=1;backgroundOutline=1;" vertex="1" parent="1">
          <mxGeometry x="1121" y="674" width="313" height="37" as="geometry" />
        </mxCell>
        <mxCell id="BgyoTB2KhY9Enmg1zpAA-31" value="&lt;div style=&quot;font-family: Consolas, &amp;quot;Courier New&amp;quot;, monospace; line-height: 22px; white-space: pre;&quot;&gt;&lt;span&gt;&lt;font style=&quot;color: light-dark(rgb(255, 255, 255), rgb(255, 255, 255));&quot;&gt;analysisEnergyConsumptionHouseholdAppliancesAndLight&lt;/font&gt;&lt;/span&gt;&lt;/div&gt;" style="shape=process;whiteSpace=wrap;html=1;backgroundOutline=1;" vertex="1" parent="1">
          <mxGeometry x="1166" y="625" width="434" height="42" as="geometry" />
        </mxCell>
        <mxCell id="BgyoTB2KhY9Enmg1zpAA-32" value="&lt;div style=&quot;font-family: Consolas, &amp;quot;Courier New&amp;quot;, monospace; line-height: 22px; white-space: pre;&quot;&gt;&lt;span&gt;&lt;font style=&quot;color: light-dark(rgb(255, 255, 255), rgb(255, 255, 255));&quot;&gt;analysisEnergyConsumptionHourly&lt;/font&gt;&lt;/span&gt;&lt;/div&gt;" style="shape=process;whiteSpace=wrap;html=1;backgroundOutline=1;" vertex="1" parent="1">
          <mxGeometry x="1227" y="580" width="264" height="40" as="geometry" />
        </mxCell>
        <mxCell id="BgyoTB2KhY9Enmg1zpAA-33" value="&lt;div style=&quot;font-family: Consolas, &amp;quot;Courier New&amp;quot;, monospace; line-height: 22px; white-space: pre;&quot;&gt;&lt;span&gt;&lt;font style=&quot;color: light-dark(rgb(255, 255, 255), rgb(255, 255, 255));&quot;&gt;analysisEnergyConsumptionDaily&lt;/font&gt;&lt;/span&gt;&lt;/div&gt;" style="shape=process;whiteSpace=wrap;html=1;backgroundOutline=1;" vertex="1" parent="1">
          <mxGeometry x="1266" y="532" width="253" height="40" as="geometry" />
        </mxCell>
        <mxCell id="BgyoTB2KhY9Enmg1zpAA-34" value="&lt;div style=&quot;font-family: Consolas, &amp;quot;Courier New&amp;quot;, monospace; line-height: 22px; white-space: pre;&quot;&gt;&lt;span&gt;&lt;font style=&quot;color: light-dark(rgb(255, 255, 255), rgb(255, 255, 255));&quot;&gt;analysisDependenceEnergyConsumptionAverageTemperatureHouse&lt;/font&gt;&lt;/span&gt;&lt;/div&gt;" style="shape=process;whiteSpace=wrap;html=1;backgroundOutline=1;" vertex="1" parent="1">
          <mxGeometry x="1303" y="487" width="485" height="40" as="geometry" />
        </mxCell>
        <mxCell id="BgyoTB2KhY9Enmg1zpAA-35" value="&lt;div style=&quot;font-family: Consolas, &amp;quot;Courier New&amp;quot;, monospace; line-height: 22px; white-space: pre;&quot;&gt;&lt;span&gt;&lt;font style=&quot;color: light-dark(rgb(255, 255, 255), rgb(255, 255, 255));&quot;&gt;analysisDependenceEnergyConsumptionAverageHumidityHouse&lt;/font&gt;&lt;/span&gt;&lt;/div&gt;" style="shape=process;whiteSpace=wrap;html=1;backgroundOutline=1;" vertex="1" parent="1">
          <mxGeometry x="1355" y="433.5" width="460" height="41" as="geometry" />
        </mxCell>
        <mxCell id="BgyoTB2KhY9Enmg1zpAA-36" value="&lt;div style=&quot;font-family: Consolas, &amp;quot;Courier New&amp;quot;, monospace; line-height: 22px; white-space: pre;&quot;&gt;&lt;span&gt;&lt;font style=&quot;color: light-dark(rgb(255, 255, 255), rgb(255, 255, 255));&quot;&gt;analysisDependenceEnergyConsumptionTemperatureDifference&lt;/font&gt;&lt;/span&gt;&lt;/div&gt;" style="shape=process;whiteSpace=wrap;html=1;backgroundOutline=1;" vertex="1" parent="1">
          <mxGeometry x="1403" y="387" width="474" height="37" as="geometry" />
        </mxCell>
        <mxCell id="BgyoTB2KhY9Enmg1zpAA-37" value="&lt;div style=&quot;font-family: Consolas, &amp;quot;Courier New&amp;quot;, monospace; line-height: 22px; white-space: pre;&quot;&gt;&lt;span&gt;&lt;font style=&quot;color: light-dark(rgb(255, 255, 255), rgb(255, 255, 255));&quot;&gt;analysisDependenceEnergyConsumptionHumidityDifference&lt;/font&gt;&lt;/span&gt;&lt;/div&gt;" style="shape=process;whiteSpace=wrap;html=1;backgroundOutline=1;" vertex="1" parent="1">
          <mxGeometry x="1451" y="336" width="442" height="38" as="geometry" />
        </mxCell>
        <mxCell id="BgyoTB2KhY9Enmg1zpAA-38" value="&lt;div style=&quot;font-family: Consolas, &amp;quot;Courier New&amp;quot;, monospace; line-height: 22px; white-space: pre;&quot;&gt;&lt;span&gt;&lt;font style=&quot;color: light-dark(rgb(255, 255, 255), rgb(255, 255, 255));&quot;&gt;analysisAverageEnergyConsumptionHour&lt;/font&gt;&lt;/span&gt;&lt;/div&gt;" style="shape=process;whiteSpace=wrap;html=1;backgroundOutline=1;" vertex="1" parent="1">
          <mxGeometry x="1494" y="291" width="308" height="39" as="geometry" />
        </mxCell>
        <mxCell id="BgyoTB2KhY9Enmg1zpAA-39" value="&lt;div style=&quot;font-family: Consolas, &amp;quot;Courier New&amp;quot;, monospace; line-height: 22px; white-space: pre;&quot;&gt;&lt;span&gt;&lt;font style=&quot;color: light-dark(rgb(255, 255, 255), rgb(255, 255, 255));&quot;&gt;analysisAverageEnergyConsumptionDaysWeek&lt;/font&gt;&lt;/span&gt;&lt;/div&gt;" style="shape=process;whiteSpace=wrap;html=1;backgroundOutline=1;" vertex="1" parent="1">
          <mxGeometry x="1534" y="243" width="343" height="42" as="geometry" />
        </mxCell>
        <mxCell id="BgyoTB2KhY9Enmg1zpAA-40" value="" style="endArrow=classic;html=1;rounded=0;exitX=0.5;exitY=1;exitDx=0;exitDy=0;entryX=0.099;entryY=0.041;entryDx=0;entryDy=0;entryPerimeter=0;" edge="1" parent="1" source="BgyoTB2KhY9Enmg1zpAA-2" target="BgyoTB2KhY9Enmg1zpAA-30">
          <mxGeometry width="50" height="50" relative="1" as="geometry">
            <mxPoint x="1075" y="473" as="sourcePoint" />
            <mxPoint x="1125" y="423" as="targetPoint" />
          </mxGeometry>
        </mxCell>
        <mxCell id="BgyoTB2KhY9Enmg1zpAA-41" value="" style="endArrow=classic;html=1;rounded=0;exitX=0.5;exitY=1;exitDx=0;exitDy=0;entryX=0.099;entryY=0.033;entryDx=0;entryDy=0;entryPerimeter=0;" edge="1" parent="1" source="BgyoTB2KhY9Enmg1zpAA-2" target="BgyoTB2KhY9Enmg1zpAA-31">
          <mxGeometry width="50" height="50" relative="1" as="geometry">
            <mxPoint x="1194" y="520" as="sourcePoint" />
            <mxPoint x="1131" y="630" as="targetPoint" />
          </mxGeometry>
        </mxCell>
        <mxCell id="BgyoTB2KhY9Enmg1zpAA-42" value="" style="endArrow=classic;html=1;rounded=0;exitX=0.5;exitY=1;exitDx=0;exitDy=0;entryX=0.101;entryY=0.014;entryDx=0;entryDy=0;entryPerimeter=0;" edge="1" parent="1" source="BgyoTB2KhY9Enmg1zpAA-2" target="BgyoTB2KhY9Enmg1zpAA-32">
          <mxGeometry width="50" height="50" relative="1" as="geometry">
            <mxPoint x="1126" y="560" as="sourcePoint" />
            <mxPoint x="1176" y="510" as="targetPoint" />
          </mxGeometry>
        </mxCell>
        <mxCell id="BgyoTB2KhY9Enmg1zpAA-43" value="" style="endArrow=classic;html=1;rounded=0;exitX=0.5;exitY=1;exitDx=0;exitDy=0;entryX=0.099;entryY=-0.017;entryDx=0;entryDy=0;entryPerimeter=0;" edge="1" parent="1" source="BgyoTB2KhY9Enmg1zpAA-2" target="BgyoTB2KhY9Enmg1zpAA-33">
          <mxGeometry width="50" height="50" relative="1" as="geometry">
            <mxPoint x="1216" y="491" as="sourcePoint" />
            <mxPoint x="1258" y="434" as="targetPoint" />
          </mxGeometry>
        </mxCell>
        <mxCell id="BgyoTB2KhY9Enmg1zpAA-44" value="" style="endArrow=classic;html=1;rounded=0;exitX=0.5;exitY=1;exitDx=0;exitDy=0;entryX=0.099;entryY=-0.017;entryDx=0;entryDy=0;entryPerimeter=0;" edge="1" parent="1" source="BgyoTB2KhY9Enmg1zpAA-2" target="BgyoTB2KhY9Enmg1zpAA-34">
          <mxGeometry width="50" height="50" relative="1" as="geometry">
            <mxPoint x="1246" y="516" as="sourcePoint" />
            <mxPoint x="1296" y="466" as="targetPoint" />
          </mxGeometry>
        </mxCell>
        <mxCell id="BgyoTB2KhY9Enmg1zpAA-45" value="" style="endArrow=classic;html=1;rounded=0;exitX=0.5;exitY=1;exitDx=0;exitDy=0;entryX=0.1;entryY=0;entryDx=0;entryDy=0;entryPerimeter=0;" edge="1" parent="1" source="BgyoTB2KhY9Enmg1zpAA-2" target="BgyoTB2KhY9Enmg1zpAA-35">
          <mxGeometry width="50" height="50" relative="1" as="geometry">
            <mxPoint x="1310" y="453" as="sourcePoint" />
            <mxPoint x="1360" y="403" as="targetPoint" />
          </mxGeometry>
        </mxCell>
        <mxCell id="BgyoTB2KhY9Enmg1zpAA-46" value="" style="endArrow=classic;html=1;rounded=0;exitX=0.5;exitY=1;exitDx=0;exitDy=0;entryX=0.101;entryY=0.008;entryDx=0;entryDy=0;entryPerimeter=0;" edge="1" parent="1" source="BgyoTB2KhY9Enmg1zpAA-2" target="BgyoTB2KhY9Enmg1zpAA-36">
          <mxGeometry width="50" height="50" relative="1" as="geometry">
            <mxPoint x="1343" y="426" as="sourcePoint" />
            <mxPoint x="1393" y="376" as="targetPoint" />
          </mxGeometry>
        </mxCell>
        <mxCell id="BgyoTB2KhY9Enmg1zpAA-47" value="" style="endArrow=classic;html=1;rounded=0;exitX=0.5;exitY=1;exitDx=0;exitDy=0;entryX=0.102;entryY=0;entryDx=0;entryDy=0;entryPerimeter=0;" edge="1" parent="1" source="BgyoTB2KhY9Enmg1zpAA-2" target="BgyoTB2KhY9Enmg1zpAA-37">
          <mxGeometry width="50" height="50" relative="1" as="geometry">
            <mxPoint x="1427" y="400" as="sourcePoint" />
            <mxPoint x="1477" y="350" as="targetPoint" />
          </mxGeometry>
        </mxCell>
        <mxCell id="BgyoTB2KhY9Enmg1zpAA-48" value="" style="endArrow=classic;html=1;rounded=0;exitX=0.5;exitY=1;exitDx=0;exitDy=0;entryX=0.101;entryY=0.033;entryDx=0;entryDy=0;entryPerimeter=0;" edge="1" parent="1" source="BgyoTB2KhY9Enmg1zpAA-2" target="BgyoTB2KhY9Enmg1zpAA-38">
          <mxGeometry width="50" height="50" relative="1" as="geometry">
            <mxPoint x="1418" y="354" as="sourcePoint" />
            <mxPoint x="1468" y="304" as="targetPoint" />
          </mxGeometry>
        </mxCell>
        <mxCell id="BgyoTB2KhY9Enmg1zpAA-49" value="" style="endArrow=classic;html=1;rounded=0;exitX=0.5;exitY=1;exitDx=0;exitDy=0;entryX=0.105;entryY=-0.017;entryDx=0;entryDy=0;entryPerimeter=0;" edge="1" parent="1" source="BgyoTB2KhY9Enmg1zpAA-2" target="BgyoTB2KhY9Enmg1zpAA-39">
          <mxGeometry width="50" height="50" relative="1" as="geometry">
            <mxPoint x="1461" y="321" as="sourcePoint" />
            <mxPoint x="1511" y="271" as="targetPoint" />
          </mxGeometry>
        </mxCell>
        <mxCell id="BgyoTB2KhY9Enmg1zpAA-50" value="&lt;div style=&quot;font-family: Consolas, &amp;quot;Courier New&amp;quot;, monospace; line-height: 22px; white-space: pre;&quot;&gt;&lt;span&gt;&lt;font style=&quot;color: light-dark(rgb(255, 255, 255), rgb(255, 255, 255));&quot;&gt;plot_total_energy_consumption&lt;/font&gt;&lt;/span&gt;&lt;/div&gt;" style="shape=process;whiteSpace=wrap;html=1;backgroundOutline=1;" vertex="1" parent="1">
          <mxGeometry x="143" y="365" width="241" height="45" as="geometry" />
        </mxCell>
        <mxCell id="BgyoTB2KhY9Enmg1zpAA-51" value="&lt;div style=&quot;font-family: Consolas, &amp;quot;Courier New&amp;quot;, monospace; line-height: 22px; white-space: pre;&quot;&gt;&lt;span&gt;&lt;font style=&quot;color: light-dark(rgb(255, 255, 255), rgb(255, 255, 255));&quot;&gt;plot_appliances_and_lights_energy_consumption&lt;/font&gt;&lt;/span&gt;&lt;/div&gt;" style="shape=process;whiteSpace=wrap;html=1;backgroundOutline=1;" vertex="1" parent="1">
          <mxGeometry x="117" y="420" width="378" height="42" as="geometry" />
        </mxCell>
        <mxCell id="BgyoTB2KhY9Enmg1zpAA-52" value="&lt;div style=&quot;font-family: Consolas, &amp;quot;Courier New&amp;quot;, monospace; line-height: 22px; white-space: pre;&quot;&gt;&lt;span&gt;&lt;font style=&quot;color: light-dark(rgb(255, 255, 255), rgb(255, 255, 255));&quot;&gt;plot_hourly_energy_consumption&lt;/font&gt;&lt;/span&gt;&lt;/div&gt;" style="shape=process;whiteSpace=wrap;html=1;backgroundOutline=1;" vertex="1" parent="1">
          <mxGeometry x="326" y="469" width="253" height="42" as="geometry" />
        </mxCell>
        <mxCell id="BgyoTB2KhY9Enmg1zpAA-53" value="&lt;div style=&quot;font-family: Consolas, &amp;quot;Courier New&amp;quot;, monospace; line-height: 22px; white-space: pre;&quot;&gt;&lt;span&gt;&lt;font style=&quot;color: light-dark(rgb(255, 255, 255), rgb(255, 255, 255));&quot;&gt;plot_daily_energy_consumption&lt;/font&gt;&lt;/span&gt;&lt;/div&gt;" style="shape=process;whiteSpace=wrap;html=1;backgroundOutline=1;" vertex="1" parent="1">
          <mxGeometry x="409" y="521" width="253" height="38" as="geometry" />
        </mxCell>
        <mxCell id="BgyoTB2KhY9Enmg1zpAA-54" value="" style="endArrow=classic;html=1;rounded=0;exitX=0.5;exitY=1;exitDx=0;exitDy=0;entryX=0.75;entryY=0;entryDx=0;entryDy=0;" edge="1" parent="1" source="BgyoTB2KhY9Enmg1zpAA-6" target="BgyoTB2KhY9Enmg1zpAA-50">
          <mxGeometry width="50" height="50" relative="1" as="geometry">
            <mxPoint x="241" y="599" as="sourcePoint" />
            <mxPoint x="291" y="549" as="targetPoint" />
          </mxGeometry>
        </mxCell>
        <mxCell id="BgyoTB2KhY9Enmg1zpAA-55" value="" style="endArrow=classic;html=1;rounded=0;exitX=0.5;exitY=1;exitDx=0;exitDy=0;entryX=0.75;entryY=0;entryDx=0;entryDy=0;" edge="1" parent="1" source="BgyoTB2KhY9Enmg1zpAA-7" target="BgyoTB2KhY9Enmg1zpAA-51">
          <mxGeometry width="50" height="50" relative="1" as="geometry">
            <mxPoint x="152" y="506" as="sourcePoint" />
            <mxPoint x="202" y="456" as="targetPoint" />
          </mxGeometry>
        </mxCell>
        <mxCell id="BgyoTB2KhY9Enmg1zpAA-56" value="" style="endArrow=classic;html=1;rounded=0;exitX=0.5;exitY=1;exitDx=0;exitDy=0;entryX=0.75;entryY=0;entryDx=0;entryDy=0;" edge="1" parent="1" source="BgyoTB2KhY9Enmg1zpAA-8" target="BgyoTB2KhY9Enmg1zpAA-52">
          <mxGeometry width="50" height="50" relative="1" as="geometry">
            <mxPoint x="154" y="568" as="sourcePoint" />
            <mxPoint x="204" y="518" as="targetPoint" />
          </mxGeometry>
        </mxCell>
        <mxCell id="BgyoTB2KhY9Enmg1zpAA-57" value="" style="endArrow=classic;html=1;rounded=0;exitX=0.5;exitY=1;exitDx=0;exitDy=0;entryX=0.75;entryY=0;entryDx=0;entryDy=0;" edge="1" parent="1" source="BgyoTB2KhY9Enmg1zpAA-9" target="BgyoTB2KhY9Enmg1zpAA-53">
          <mxGeometry width="50" height="50" relative="1" as="geometry">
            <mxPoint x="151" y="558" as="sourcePoint" />
            <mxPoint x="201" y="508" as="targetPoint" />
          </mxGeometry>
        </mxCell>
        <mxCell id="BgyoTB2KhY9Enmg1zpAA-58" value="&lt;div style=&quot;font-family: Consolas, &amp;quot;Courier New&amp;quot;, monospace; line-height: 22px; white-space: pre;&quot;&gt;&lt;span&gt;&lt;font style=&quot;color: light-dark(rgb(220, 220, 170), rgb(255, 255, 255));&quot;&gt;plot_temperature_energy_consumption&lt;/font&gt;&lt;/span&gt;&lt;/div&gt;" style="shape=process;whiteSpace=wrap;html=1;backgroundOutline=1;" vertex="1" parent="1">
          <mxGeometry x="463" y="568" width="296" height="43" as="geometry" />
        </mxCell>
        <mxCell id="BgyoTB2KhY9Enmg1zpAA-59" value="" style="endArrow=classic;html=1;rounded=0;exitX=0.5;exitY=1;exitDx=0;exitDy=0;entryX=0.75;entryY=0;entryDx=0;entryDy=0;" edge="1" parent="1" source="BgyoTB2KhY9Enmg1zpAA-10" target="BgyoTB2KhY9Enmg1zpAA-58">
          <mxGeometry width="50" height="50" relative="1" as="geometry">
            <mxPoint x="235" y="609" as="sourcePoint" />
            <mxPoint x="285" y="559" as="targetPoint" />
          </mxGeometry>
        </mxCell>
        <mxCell id="BgyoTB2KhY9Enmg1zpAA-60" value="&lt;div style=&quot;font-family: Consolas, &amp;quot;Courier New&amp;quot;, monospace; line-height: 22px; white-space: pre;&quot;&gt;&lt;span&gt;&lt;font style=&quot;color: light-dark(rgb(220, 220, 170), rgb(255, 255, 255));&quot;&gt;plot_humidity_energy_consumption&lt;/font&gt;&lt;/span&gt;&lt;/div&gt;" style="shape=process;whiteSpace=wrap;html=1;backgroundOutline=1;" vertex="1" parent="1">
          <mxGeometry x="579" y="618" width="272" height="40" as="geometry" />
        </mxCell>
        <mxCell id="BgyoTB2KhY9Enmg1zpAA-61" value="&lt;div style=&quot;font-family: Consolas, &amp;quot;Courier New&amp;quot;, monospace; line-height: 22px; white-space: pre;&quot;&gt;&lt;span&gt;&lt;font style=&quot;color: light-dark(rgb(255, 255, 255), rgb(255, 255, 255));&quot;&gt;plot_temperature_diff_energy_consumption&lt;/font&gt;&lt;/span&gt;&lt;/div&gt;" style="shape=process;whiteSpace=wrap;html=1;backgroundOutline=1;" vertex="1" parent="1">
          <mxGeometry x="623" y="667" width="335" height="43" as="geometry" />
        </mxCell>
        <mxCell id="BgyoTB2KhY9Enmg1zpAA-62" value="" style="endArrow=classic;html=1;rounded=0;exitX=0.5;exitY=1;exitDx=0;exitDy=0;entryX=0.75;entryY=0;entryDx=0;entryDy=0;" edge="1" parent="1" source="BgyoTB2KhY9Enmg1zpAA-11" target="BgyoTB2KhY9Enmg1zpAA-60">
          <mxGeometry width="50" height="50" relative="1" as="geometry">
            <mxPoint x="357" y="626" as="sourcePoint" />
            <mxPoint x="407" y="576" as="targetPoint" />
          </mxGeometry>
        </mxCell>
        <mxCell id="BgyoTB2KhY9Enmg1zpAA-63" value="" style="endArrow=classic;html=1;rounded=0;exitX=0.5;exitY=1;exitDx=0;exitDy=0;entryX=0.75;entryY=0;entryDx=0;entryDy=0;" edge="1" parent="1" source="BgyoTB2KhY9Enmg1zpAA-12" target="BgyoTB2KhY9Enmg1zpAA-61">
          <mxGeometry width="50" height="50" relative="1" as="geometry">
            <mxPoint x="452" y="689" as="sourcePoint" />
            <mxPoint x="502" y="639" as="targetPoint" />
          </mxGeometry>
        </mxCell>
        <mxCell id="BgyoTB2KhY9Enmg1zpAA-64" value="&lt;div style=&quot;font-family: Consolas, &amp;quot;Courier New&amp;quot;, monospace; line-height: 22px; white-space: pre;&quot;&gt;&lt;span&gt;&lt;font style=&quot;color: light-dark(rgb(0, 0, 0), rgb(255, 255, 255));&quot;&gt;plot_humidity_diff_energy_consumption&lt;/font&gt;&lt;/span&gt;&lt;/div&gt;" style="shape=process;whiteSpace=wrap;html=1;backgroundOutline=1;" vertex="1" parent="1">
          <mxGeometry x="706" y="718" width="312" height="43" as="geometry" />
        </mxCell>
        <mxCell id="BgyoTB2KhY9Enmg1zpAA-65" value="" style="endArrow=classic;html=1;rounded=0;exitX=0.5;exitY=1;exitDx=0;exitDy=0;entryX=0.897;entryY=0;entryDx=0;entryDy=0;entryPerimeter=0;" edge="1" parent="1" source="BgyoTB2KhY9Enmg1zpAA-13" target="BgyoTB2KhY9Enmg1zpAA-64">
          <mxGeometry width="50" height="50" relative="1" as="geometry">
            <mxPoint x="426" y="673" as="sourcePoint" />
            <mxPoint x="476" y="623" as="targetPoint" />
          </mxGeometry>
        </mxCell>
        <mxCell id="BgyoTB2KhY9Enmg1zpAA-66" value="&lt;div style=&quot;font-family: Consolas, &amp;quot;Courier New&amp;quot;, monospace; line-height: 22px; white-space: pre;&quot;&gt;&lt;span&gt;&lt;font style=&quot;color: light-dark(rgb(255, 255, 255), rgb(255, 255, 255));&quot;&gt;histogram_average_hourly_consumption&lt;/font&gt;&lt;/span&gt;&lt;/div&gt;" style="shape=process;whiteSpace=wrap;html=1;backgroundOutline=1;" vertex="1" parent="1">
          <mxGeometry x="1007" y="770" width="304" height="42" as="geometry" />
        </mxCell>
        <mxCell id="BgyoTB2KhY9Enmg1zpAA-67" value="" style="endArrow=classic;html=1;rounded=0;exitX=0.5;exitY=1;exitDx=0;exitDy=0;entryX=0.099;entryY=0;entryDx=0;entryDy=0;entryPerimeter=0;" edge="1" parent="1" source="BgyoTB2KhY9Enmg1zpAA-14" target="BgyoTB2KhY9Enmg1zpAA-66">
          <mxGeometry width="50" height="50" relative="1" as="geometry">
            <mxPoint x="510" y="712" as="sourcePoint" />
            <mxPoint x="560" y="662" as="targetPoint" />
          </mxGeometry>
        </mxCell>
        <mxCell id="BgyoTB2KhY9Enmg1zpAA-68" value="&lt;div style=&quot;font-family: Consolas, &amp;quot;Courier New&amp;quot;, monospace; line-height: 22px; white-space: pre;&quot;&gt;&lt;span&gt;&lt;font style=&quot;color: light-dark(rgb(255, 255, 255), rgb(255, 255, 255));&quot;&gt;histogram_average_weekly_consumption&lt;/font&gt;&lt;/span&gt;&lt;/div&gt;" style="shape=process;whiteSpace=wrap;html=1;backgroundOutline=1;" vertex="1" parent="1">
          <mxGeometry x="1063" y="718" width="303" height="45" as="geometry" />
        </mxCell>
        <mxCell id="BgyoTB2KhY9Enmg1zpAA-69" value="" style="endArrow=classic;html=1;rounded=0;exitX=0.5;exitY=1;exitDx=0;exitDy=0;entryX=0.102;entryY=0;entryDx=0;entryDy=0;entryPerimeter=0;" edge="1" parent="1" source="BgyoTB2KhY9Enmg1zpAA-16" target="BgyoTB2KhY9Enmg1zpAA-68">
          <mxGeometry width="50" height="50" relative="1" as="geometry">
            <mxPoint x="636" y="696" as="sourcePoint" />
            <mxPoint x="686" y="646" as="targetPoint" />
          </mxGeometry>
        </mxCell>
        <mxCell id="BgyoTB2KhY9Enmg1zpAA-70" value="" style="endArrow=classic;html=1;rounded=0;exitX=1;exitY=0.5;exitDx=0;exitDy=0;entryX=0;entryY=0.5;entryDx=0;entryDy=0;" edge="1" parent="1" source="BgyoTB2KhY9Enmg1zpAA-2" target="BgyoTB2KhY9Enmg1zpAA-4">
          <mxGeometry width="50" height="50" relative="1" as="geometry">
            <mxPoint x="1293" y="204" as="sourcePoint" />
            <mxPoint x="1343" y="154" as="targetPoint" />
          </mxGeometry>
        </mxCell>
        <mxCell id="BgyoTB2KhY9Enmg1zpAA-71" value="&lt;div style=&quot;font-family: Consolas, &amp;quot;Courier New&amp;quot;, monospace; line-height: 22px; white-space: pre;&quot;&gt;&lt;span&gt;&lt;font style=&quot;color: light-dark(rgb(255, 255, 255), rgb(255, 255, 255));&quot;&gt;validate_data&lt;/font&gt;&lt;/span&gt;&lt;/div&gt;" style="shape=process;whiteSpace=wrap;html=1;backgroundOutline=1;" vertex="1" parent="1">
          <mxGeometry x="1593" y="163" width="120" height="60" as="geometry" />
        </mxCell>
        <mxCell id="BgyoTB2KhY9Enmg1zpAA-72" value="" style="endArrow=classic;html=1;rounded=0;exitX=1;exitY=0.5;exitDx=0;exitDy=0;entryX=0;entryY=0.5;entryDx=0;entryDy=0;" edge="1" parent="1" source="BgyoTB2KhY9Enmg1zpAA-4" target="BgyoTB2KhY9Enmg1zpAA-71">
          <mxGeometry width="50" height="50" relative="1" as="geometry">
            <mxPoint x="1517" y="157" as="sourcePoint" />
            <mxPoint x="1567" y="107" as="targetPoint" />
          </mxGeometry>
        </mxCell>
      </root>
    </mxGraphModel>
  </diagram>
</mxfile>
